<?xml version="1.0" standalone="no"?>
<!DOCTYPE svg PUBLIC "-//W3C//DTD SVG 20010904//EN"
 "http://www.w3.org/TR/2001/REC-SVG-20010904/DTD/svg10.dtd">
<svg version="1.0" xmlns="http://www.w3.org/2000/svg"
 width="2048.000000pt" height="2048.000000pt" viewBox="0 0 2048.000000 2048.000000"
 preserveAspectRatio="xMidYMid meet">

<g transform="translate(0.000000,2048.000000) scale(0.100000,-0.100000)"
fill="#000000" stroke="none">
<path d="M5830 13243 c-154 -12 -318 -62 -490 -148 -149 -74 -346 -210 -475
-329 -27 -25 -53 -45 -57 -46 -18 0 -169 -553 -168 -614 0 -6 19 24 43 67 130
238 445 492 693 557 98 25 288 28 401 4 257 -53 409 -232 479 -562 45 -211 54
-431 54 -1307 0 -795 -4 -916 -36 -1040 -45 -180 -115 -249 -324 -319 l-105
-35 -3 -101 -3 -100 846 0 845 0 0 100 c0 72 -4 102 -12 104 -105 30 -224 74
-267 99 -102 60 -156 157 -183 332 -10 60 -13 318 -13 1055 l0 975 22 79 c59
207 181 363 449 574 55 42 224 123 300 142 97 25 316 27 412 5 263 -62 427
-263 486 -595 38 -213 41 -313 41 -1260 l0 -925 -23 -95 c-51 -214 -115 -280
-349 -360 -48 -17 -89 -30 -90 -30 -2 0 -3 -45 -3 -100 l0 -100 848 0 847 0
-2 97 c-1 70 -5 100 -15 105 -7 4 -47 16 -88 28 -99 29 -185 70 -238 115 -62
54 -95 125 -124 269 -6 32 -13 484 -18 1176 -6 959 -9 1141 -23 1234 -48 322
-141 524 -319 691 -163 154 -350 228 -646 256 -387 37 -751 -90 -1107 -386
-142 -118 -331 -289 -387 -349 -24 -25 -30 -17 -58 69 -64 199 -201 392 -345
483 -27 17 -54 35 -60 39 -11 9 -133 64 -180 82 -62 23 -204 50 -315 60 -112
11 -148 11 -240 4z"/>
<path d="M12870 13225 c-211 -40 -441 -150 -665 -317 -130 -98 -129 -97 -221
-370 -91 -274 -94 -265 38 -135 176 174 329 274 493 323 79 24 106 27 230 26
257 0 403 -63 530 -227 66 -84 102 -166 133 -301 33 -141 51 -320 62 -615 12
-340 12 -1242 0 -1484 -21 -428 -82 -531 -369 -625 l-86 -29 -3 -100 -3 -101
841 0 840 0 0 100 0 99 -57 17 c-273 76 -354 153 -400 379 -17 83 -18 162 -18
1070 0 1095 -2 1058 71 1212 117 245 433 510 699 585 104 29 312 31 420 3 236
-60 393 -229 461 -495 57 -226 66 -443 61 -1440 -3 -744 -6 -875 -19 -935 -28
-121 -57 -185 -108 -236 -56 -56 -82 -70 -225 -124 l-110 -41 0 -94 0 -95 843
-3 842 -2 0 99 0 99 -102 32 c-279 88 -345 177 -368 496 -5 78 -10 547 -10
1069 0 923 -5 1118 -35 1290 -89 517 -374 807 -860 874 -113 16 -355 14 -460
-5 -318 -55 -599 -226 -1029 -628 -59 -55 -113 -101 -119 -101 -5 0 -21 32
-33 70 -35 103 -52 140 -110 235 -131 215 -329 348 -609 412 -118 27 -431 34
-545 13z"/>
<path d="M4235 13214 c-11 -2 -175 -8 -365 -14 -190 -5 -389 -13 -442 -16
l-98 -7 0 -107 0 -107 68 -12 c112 -21 242 -69 298 -111 90 -68 128 -157 145
-339 6 -76 9 -543 6 -1346 -3 -1132 -5 -1236 -21 -1305 -24 -105 -57 -172
-109 -224 -53 -53 -99 -77 -227 -122 l-95 -33 -3 -101 -3 -100 846 0 845 0 0
100 c0 72 -4 102 -12 104 -327 90 -416 173 -459 426 -7 42 -12 388 -16 988 -3
508 -6 922 -8 920 -6 -5 -35 -244 -35 -284 0 -20 -2 -35 -5 -32 -6 5 -26 586
-45 1273 -6 226 -13 420 -16 433 -4 21 -8 22 -117 21 -61 -1 -121 -3 -132 -5z"/>
<path d="M11425 13214 c-11 -2 -171 -8 -355 -14 -184 -6 -390 -13 -457 -17
l-123 -6 0 -108 c0 -108 0 -109 24 -109 45 0 221 -50 283 -80 116 -57 177
-155 204 -325 16 -100 24 -2161 10 -2440 -21 -424 -74 -514 -361 -614 -45 -16
-86 -33 -91 -38 -6 -6 -9 -50 -7 -99 l3 -89 843 -3 842 -2 0 99 0 98 -102 33
c-253 80 -325 155 -365 380 -12 68 -16 237 -21 865 l-6 780 -16 -125 c-11 -80
-19 -116 -23 -100 -3 14 -18 446 -33 960 -15 514 -31 940 -35 946 -8 10 -169
16 -214 8z"/>
<path d="M3245 8739 c-126 -61 -126 -248 1 -309 40 -20 87 -20 7031 -18 l6991
3 39 31 c46 37 65 73 71 134 5 55 -17 100 -72 144 l-38 31 -6991 2 c-6926 2
-6992 2 -7032 -18z"/>
<path d="M3545 8123 c-408 -51 -751 -335 -878 -728 -38 -118 -50 -196 -49
-330 2 -392 210 -736 563 -929 78 -43 177 -78 291 -103 80 -17 333 -18 6768
-18 6220 0 6690 1 6760 17 460 103 783 446 847 898 28 205 -2 405 -91 592
-152 321 -454 546 -803 597 -50 8 -2054 11 -6725 10 -3659 -1 -6666 -4 -6683
-6z m3328 -803 c2 -637 -1 -608 77 -631 32 -10 40 -17 40 -36 l0 -23 -145 0
-146 0 7 65 c7 69 1 78 -32 47 -188 -174 -462 -158 -566 34 -72 133 -73 368
-3 505 32 60 112 135 178 165 53 24 77 29 173 32 101 4 176 -4 227 -23 16 -7
17 4 17 144 0 192 -12 218 -105 233 -12 2 -20 11 -20 23 0 18 9 21 75 26 41 3
108 5 148 5 l73 -1 2 -565z m-2938 420 c18 -47 90 -227 160 -400 70 -173 130
-324 134 -335 10 -24 -17 -82 263 560 39 88 81 184 93 213 l24 52 165 0 166 0
0 -25 c0 -16 -6 -25 -15 -25 -32 0 -73 -30 -84 -61 -7 -22 -11 -179 -11 -486
0 -516 0 -513 70 -540 32 -13 40 -21 38 -37 -3 -20 -9 -21 -183 -24 -99 -1
-190 0 -202 3 -39 9 -28 40 17 54 76 23 74 10 81 506 3 242 4 442 3 444 -2 2
-9 -12 -17 -30 -8 -19 -79 -178 -157 -354 -78 -176 -158 -357 -178 -403 l-37
-83 -59 3 -60 3 -97 240 c-53 132 -102 251 -107 265 -6 14 -41 99 -78 190 -37
91 -70 168 -73 173 -6 6 -5 -553 2 -794 3 -113 17 -142 77 -160 42 -13 55 -41
24 -53 -9 -3 -85 -6 -169 -6 -84 0 -160 3 -169 6 -29 11 -17 33 32 56 74 36
73 29 70 562 -3 514 -1 495 -73 519 -28 10 -41 20 -43 36 l-3 21 181 -2 182
-3 33 -85z m1785 -290 c54 -30 85 -74 99 -141 6 -28 11 -159 11 -297 0 -136 3
-257 6 -269 4 -14 24 -31 55 -45 52 -25 65 -54 27 -63 -13 -3 -72 -5 -133 -3
l-110 3 -5 63 -5 63 -35 -29 c-124 -102 -258 -135 -390 -96 -100 30 -160 120
-146 219 21 137 178 217 469 241 l87 7 0 81 c0 99 -22 153 -73 185 -48 30 -92
35 -160 21 -60 -12 -105 -48 -127 -101 -12 -28 -15 -29 -82 -29 l-69 0 3 57 3
57 75 32 c134 58 211 74 340 71 101 -2 120 -5 160 -27z m1991 3 c62 -32 93
-73 108 -144 6 -28 11 -156 11 -288 0 -131 3 -252 6 -270 5 -25 16 -35 55 -53
52 -25 65 -54 27 -63 -13 -3 -72 -5 -133 -3 l-110 3 -5 63 -5 63 -35 -29 c-92
-76 -184 -112 -285 -112 -161 0 -270 103 -251 235 21 137 178 217 469 241 l87
7 0 86 c0 70 -4 93 -23 125 -70 124 -282 108 -337 -25 -12 -28 -15 -29 -82
-29 l-69 0 3 57 3 57 75 32 c122 53 212 73 331 73 96 1 110 -1 160 -26z"/>
<path d="M6382 7384 c-100 -49 -150 -180 -139 -358 14 -216 83 -303 235 -294
83 4 148 41 192 107 l30 44 0 176 c0 187 -7 239 -37 280 -52 72 -185 93 -281
45z"/>
<path d="M5475 7010 c-65 -9 -147 -45 -176 -76 -27 -29 -37 -116 -17 -153 37
-68 179 -82 268 -26 24 15 50 33 56 40 27 27 43 76 46 146 l3 74 -65 1 c-36 1
-87 -2 -115 -6z"/>
<path d="M7474 7010 c-78 -11 -160 -53 -184 -92 -23 -37 -26 -101 -7 -137 35
-68 178 -82 267 -26 83 52 96 76 101 185 l4 75 -65 1 c-36 1 -88 -2 -116 -6z"/>
</g>
</svg>
